<svg xmlns="http://www.w3.org/2000/svg" xmlns:xlink="http://www.w3.org/1999/xlink" width="55" height="50.43" viewBox="0 0 55 50.43">
  <defs>
    <filter id="Path_3981" x="0" y="0" width="44.668" height="42.022" filterUnits="userSpaceOnUse">
      <feOffset dy="3" input="SourceAlpha"/>
      <feGaussianBlur stdDeviation="3" result="blur"/>
      <feFlood flood-opacity="0.161"/>
      <feComposite operator="in" in2="blur"/>
      <feComposite in="SourceGraphic"/>
    </filter>
    <filter id="Path_3982" x="10.332" y="8.407" width="44.668" height="42.022" filterUnits="userSpaceOnUse">
      <feOffset dy="3" input="SourceAlpha"/>
      <feGaussianBlur stdDeviation="3" result="blur-2"/>
      <feFlood flood-opacity="0.161"/>
      <feComposite operator="in" in2="blur-2"/>
      <feComposite in="SourceGraphic"/>
    </filter>
  </defs>
  <g id="chatting" transform="translate(9 -25.622)">
    <g transform="matrix(1, 0, 0, 1, -9, 25.62)" filter="url(#Path_3981)">
      <path id="Path_3981-2" data-name="Path 3981" d="M25.584,31.622H4.184A4.189,4.189,0,0,0,0,35.806V54.559a1.085,1.085,0,0,0,1.713.882l5.96-4.252a2.917,2.917,0,0,1,1.7-.545H22.484a4.189,4.189,0,0,0,4.184-4.184V32.706A1.084,1.084,0,0,0,25.584,31.622ZM20.319,44.753H7.795a1.084,1.084,0,1,1,0-2.168H20.319a1.084,1.084,0,1,1,0,2.168Zm0-5.059H7.795a1.084,1.084,0,1,1,0-2.168H20.319a1.084,1.084,0,1,1,0,2.168Z" transform="translate(9 -25.62)" fill="#ff6d00"/>
    </g>
    <g transform="matrix(1, 0, 0, 1, -9, 25.62)" filter="url(#Path_3982)">
      <path id="Path_3982-2" data-name="Path 3982" d="M169.638,152.147V170.9a1.085,1.085,0,0,1-1.713.882l-5.96-4.251a2.917,2.917,0,0,0-1.7-.545H147.154a4.189,4.189,0,0,1-4.184-4.185v-2.055h12.152a6.359,6.359,0,0,0,6.352-6.352v-6.431h3.98a4.189,4.189,0,0,1,4.184,4.185Z" transform="translate(-123.64 -133.55)" fill="#ff6d00"/>
    </g>
  </g>
</svg>
