<svg xmlns="http://www.w3.org/2000/svg" width="43.462" height="28.475" viewBox="0 0 43.462 28.475">
  <g id="saudi-arabia" transform="translate(0 -88.276)">
    <path id="Path_1" data-name="Path 1" d="M40.207,116.751H3.255A3.255,3.255,0,0,1,0,113.5V91.531a3.255,3.255,0,0,1,3.255-3.255H40.207a3.255,3.255,0,0,1,3.255,3.255V113.5A3.255,3.255,0,0,1,40.207,116.751Z" fill="#73af00"/>
    <g id="Group_1" data-name="Group 1" transform="translate(8.593 94.271)">
      <path id="Path_2" data-name="Path 2" d="M102.516,169.143c.074.473.36.622.609.6a.612.612,0,0,0,.551-.574v-1.625a.148.148,0,1,1,.3,0v1.632a.59.59,0,0,0,.81.548l.148-.059c.014,1.364-.069,2.562-.071,2.584a.3.3,0,0,0,.274.316h.021a.3.3,0,0,0,.294-.274c.007-.1.1-1.409.071-2.862l.089-.036a.3.3,0,0,1,.242.01.844.844,0,0,0,.974-.158l.053-.053a.882.882,0,0,0,.214-.907l-.251-.755a.3.3,0,0,0,.219-.547l-.591-.3a.3.3,0,0,0-.412.358l.475,1.426a.294.294,0,0,1-.071.3l-.053.053a.254.254,0,0,1-.292.047.883.883,0,0,0-.614-.061,10.186,10.186,0,0,0-.361-2.545.3.3,0,0,0-.56.187,10.156,10.156,0,0,1,.338,2.578l-.354.141v-1.632a.739.739,0,0,0-1.477,0v1.43l-.3-1.488a.3.3,0,1,0-.579.117Z" transform="translate(-102.116 -165.46)" fill="#f5f5f5"/>
      <path id="Path_3" data-name="Path 3" d="M109.455,163.48a.3.3,0,0,0,.3-.3v-.3a.3.3,0,1,0-.591,0v.3A.3.3,0,0,0,109.455,163.48Z" transform="translate(-108.486 -162.28)" fill="#f5f5f5"/>
      <path id="Path_4" data-name="Path 4" d="M144.252,163.185h.3a.3.3,0,1,0,0-.591h-.3a.3.3,0,1,0,0,.591Z" transform="translate(-140.33 -162.28)" fill="#f5f5f5"/>
      <path id="Path_5" data-name="Path 5" d="M107.3,214.831l-1.477.886a.3.3,0,1,0,.3.506l1.477-.886a.3.3,0,1,0-.3-.507Z" transform="translate(-105.301 -210.045)" fill="#f5f5f5"/>
      <path id="Path_6" data-name="Path 6" d="M120.764,170.772l.007,0a.675.675,0,0,0,.136.278.58.58,0,0,0,.5.2.815.815,0,0,0,.614-.323.536.536,0,0,0,.062.037.559.559,0,0,0,.52-.017,1.122,1.122,0,0,0,.529-1.04.3.3,0,0,0-.308-.28.3.3,0,0,0-.283.307s.007.354-.208.484a.719.719,0,0,1-.092-.249.3.3,0,0,0-.587.049c0,.043-.01.422-.3.454a.721.721,0,0,1,0-.387.3.3,0,0,0-.453-.313l-.165.112c-.078-1.713-.259-3.709-.261-3.735a.3.3,0,1,0-.588.054c0,.027.211,2.337.275,4.1l-.045.044a.761.761,0,0,0-.647-.508,1.078,1.078,0,0,0-1.04.658.7.7,0,0,0,.226.881.985.985,0,0,0,.881.04,2.47,2.47,0,0,1-.48.911,1.239,1.239,0,0,1-.944.481.776.776,0,0,1-.574-.245,1.687,1.687,0,0,1-.312-1.057.3.3,0,0,0-.279-.31.289.289,0,0,0-.311.279,2.265,2.265,0,0,0,.464,1.485,1.355,1.355,0,0,0,.989.439h.059a1.8,1.8,0,0,0,1.355-.687,3.055,3.055,0,0,0,.676-1.514,3.348,3.348,0,0,1-1.417,2.652,1.475,1.475,0,0,1-1.479.108,1.267,1.267,0,0,1-.65-1.249.3.3,0,0,0-.586-.073,1.855,1.855,0,0,0,.975,1.852,2.008,2.008,0,0,0,.894.213,2.186,2.186,0,0,0,1.158-.349,3.927,3.927,0,0,0,1.7-3.156C120.773,171.2,120.77,170.991,120.764,170.772Zm-1.781.3c-.053-.035-.012-.147,0-.169a.5.5,0,0,1,.412-.291h.024c.038,0,.138.013.181.236q.007.035.012.073C119.279,171.12,119.059,171.127,118.983,171.077Z" transform="translate(-114.783 -165.463)" fill="#f5f5f5"/>
      <path id="Path_7" data-name="Path 7" d="M102.343,243.855a.3.3,0,0,0-.4.1.607.607,0,0,1-.05.07l-.01-.024a1.987,1.987,0,0,1,.009-1,.3.3,0,0,0-.571-.152,2.544,2.544,0,0,0,.009,1.362c.136.361.344.452.495.465l.04,0a.776.776,0,0,0,.589-.422A.3.3,0,0,0,102.343,243.855Z" transform="translate(-101.225 -235.525)" fill="#f5f5f5"/>
      <path id="Path_8" data-name="Path 8" d="M175.424,165.252a.293.293,0,0,0,.182-.063l1.489-1.169a.284.284,0,0,0,.049-.057.74.74,0,1,0-.849-.066l-1.054.827a.3.3,0,0,0,.183.528Zm1.341-2.068a.148.148,0,1,1-.148.148A.148.148,0,0,1,176.766,163.185Z" transform="translate(-168.855 -162.28)" fill="#f5f5f5"/>
      <path id="Path_9" data-name="Path 9" d="M185.586,190.447a.3.3,0,0,0-.374.187.9.9,0,0,0,.115.871.6.6,0,0,0,.441.169,1.3,1.3,0,0,0,.408-.075.3.3,0,1,0-.187-.56,1.026,1.026,0,0,1-.241.052.565.565,0,0,1,.024-.27A.3.3,0,0,0,185.586,190.447Z" transform="translate(-178.025 -187.754)" fill="#f5f5f5"/>
      <path id="Path_10" data-name="Path 10" d="M227.828,163.617a.3.3,0,0,0,.366-.2l.172-.591a.3.3,0,1,0-.567-.166l-.172.591A.3.3,0,0,0,227.828,163.617Z" transform="translate(-216.887 -162.146)" fill="#f5f5f5"/>
      <path id="Path_11" data-name="Path 11" d="M206.133,160.334a.3.3,0,1,0,.3-.51c-.059-.035-.051-.132-.049-.152a.232.232,0,0,1,.136-.2.3.3,0,1,0-.176-.564.811.811,0,0,0-.547.694A.728.728,0,0,0,206.133,160.334Z" transform="translate(-196.913 -158.897)" fill="#f5f5f5"/>
      <path id="Path_12" data-name="Path 12" d="M179.049,232.189a.3.3,0,0,0-.055.586.555.555,0,0,1,.055.3.3.3,0,0,0,.591,0C179.64,232.2,179.074,232.189,179.049,232.189Z" transform="translate(-172.173 -225.968)" fill="#f5f5f5"/>
      <path id="Path_13" data-name="Path 13" d="M235.012,208.674a.678.678,0,0,0,.111.009,1.009,1.009,0,0,0,.7-.349.3.3,0,0,0-.418-.418c-.177.177-.272.181-.3.175-.056-.008-.107-.082-.119-.1a.3.3,0,0,0-.527.268A.8.8,0,0,0,235.012,208.674Z" transform="translate(-223.124 -203.676)" fill="#f5f5f5"/>
      <path id="Path_14" data-name="Path 14" d="M294.165,191.028l-.005-.013a.3.3,0,0,0-.56.189.662.662,0,0,0,.481.46.5.5,0,0,0,.065,0,.723.723,0,0,0,.571-.394.3.3,0,0,0-.492-.328A.88.88,0,0,1,294.165,191.028Z" transform="translate(-277.257 -188.105)" fill="#f5f5f5"/>
      <path id="Path_15" data-name="Path 15" d="M207.606,173.746c0-1.26-.055-2.441-.132-3.477a14.958,14.958,0,0,1,1.037,2.1.3.3,0,0,0,.277.192.3.3,0,0,0,.1-.019.3.3,0,0,0,.173-.38,19.564,19.564,0,0,0-1.708-3.238c-.161-1.591-.342-2.6-.346-2.619a.3.3,0,0,0-.581.106c0,.013.1.533.207,1.409-.227-.337-.438-.641-.615-.891l.014,0a.3.3,0,1,0,.187-.56l-.886-.3a.294.294,0,0,0-.333.107.3.3,0,0,0-.043.091.644.644,0,0,0-.617-.148.5.5,0,0,0-.282.526,2.669,2.669,0,0,0,.2.837c.174.493.283.855.1,1.028a.323.323,0,0,1-.3.106c-.182-.046-.362-.289-.483-.649a.275.275,0,0,0-.024-.041,5.024,5.024,0,0,0-.09-1.634.3.3,0,0,0-.579.116,2.812,2.812,0,0,1-.155,2.1.53.53,0,0,1-.442.2.17.17,0,0,1-.141-.066,2.846,2.846,0,0,1-.157-1.665.3.3,0,0,0-.293-.337c-.508,0-.7.578-.871,1.088-.075.224-.214.641-.311.684-.179,0-.294-.525-.3-.886a.3.3,0,0,0-.3-.295h0a.3.3,0,0,0-.295.3c0,.681.232,1.477.886,1.477.487,0,.684-.531.85-1.024a1.852,1.852,0,0,0,.335,1.05.758.758,0,0,0,.588.27,1.124,1.124,0,0,0,.9-.416,1.359,1.359,0,0,0,.11-.163,1.1,1.1,0,0,0,.619.465.85.85,0,0,0,.209.027.937.937,0,0,0,.643-.275.869.869,0,0,0,.1-.119.8.8,0,0,0,.218.033,1.2,1.2,0,0,0,.613-.188.3.3,0,0,0-.317-.5.627.627,0,0,1-.334.088,3.047,3.047,0,0,0-.224-.971,4.106,4.106,0,0,1-.153-.494c.024.021.048.042.069.063a.3.3,0,0,0,.418,0,.285.285,0,0,0,.043-.065c.306.422.936,1.308,1.584,2.33.124,1.256.232,2.858.232,4.615a.3.3,0,0,0,.591,0Z" transform="translate(-191.277 -165.457)" fill="#f5f5f5"/>
      <path id="Path_16" data-name="Path 16" d="M293.882,167.257a.3.3,0,0,0,.591,0,3.012,3.012,0,0,0-.327-1.018.3.3,0,1,0-.528.264A2.624,2.624,0,0,1,293.882,167.257Z" transform="translate(-277.257 -165.466)" fill="#f5f5f5"/>
      <path id="Path_17" data-name="Path 17" d="M263.879,250.212a.3.3,0,0,0-.4.13.849.849,0,0,1-.122.175,1.652,1.652,0,0,1,.078-.546.3.3,0,0,0-.491-.3l-.591.591a.3.3,0,1,0,.418.418l.015-.015a.61.61,0,0,0,.158.31.54.54,0,0,0,.384.169.523.523,0,0,0,.081-.007.961.961,0,0,0,.6-.535A.3.3,0,0,0,263.879,250.212Z" transform="translate(-248.599 -241.89)" fill="#f5f5f5"/>
      <path id="Path_18" data-name="Path 18" d="M174.6,206.436h-2.082q.028-.11.057-.21c.83-.173,1.324-.441,1.469-.8a.66.66,0,0,0-.111-.663.732.732,0,0,0-.747-.318c-.42.085-.794.537-1.062,1.261a3.4,3.4,0,0,0-1.706.738,4.577,4.577,0,0,0-.613-1.964.3.3,0,1,0-.492.328,4.266,4.266,0,0,1,.541,2.2,2.338,2.338,0,0,1-1.772,2.363c-.332,0-.477-.394-.541-.728a3.392,3.392,0,0,0,1.418-1.564,2.349,2.349,0,0,0-.2-1.6l-.022-.051.018.018a.3.3,0,1,0,.418-.418c-.173-.173-.508-.444-.813-.317a.5.5,0,0,0-.282.525,1.255,1.255,0,0,0,.138.475,1.786,1.786,0,0,1,.167,1.226,2.5,2.5,0,0,1-.967,1.066.29.29,0,0,0-.223-.108h0a.3.3,0,0,0-.295.3c0,.053,0,.11.006.168a15.542,15.542,0,0,1-1.9,1.04.3.3,0,0,0,.122.564.292.292,0,0,0,.122-.026,17.034,17.034,0,0,0,1.764-.945,1.149,1.149,0,0,0,1.067.971,2.509,2.509,0,0,0,1.977-1.445,1.718,1.718,0,0,0,.2.282,3.329,3.329,0,0,0,2.257.867.3.3,0,0,0,.021-.59.632.632,0,0,1-.369-.179.506.506,0,0,1-.1-.388c.03-.364,1.2-.636,2.239-.652a.3.3,0,0,0,.274-.2l.3-.831a.3.3,0,0,0-.278-.394Zm-1.3-1.411a.107.107,0,0,1,.022,0c.028,0,.073.014.132.094.011.015.047.066.038.089-.034.084-.238.222-.663.347C173.018,205.188,173.2,205.045,173.3,205.025Zm-1.784,3.883a1.808,1.808,0,0,1-.818-.5,1.255,1.255,0,0,1-.262-1.04.87.87,0,0,1,.062-.125c.416-.038,1.527.126,1.6.444a.992.992,0,0,0-.624.771A1.246,1.246,0,0,0,171.517,208.908Z" transform="translate(-159.432 -200.491)" fill="#f5f5f5"/>
      <path id="Path_19" data-name="Path 19" d="M292.455,167.158l-.3-.886a.3.3,0,0,0-.574.123c.2,2.038.589,6.013.589,6.469,0,.409-.728,1.215-1.9,1.8a.3.3,0,0,0,.264.528c1.075-.537,2.231-1.5,2.231-2.332,0-.436-.3-3.577-.475-5.341A.3.3,0,0,0,292.455,167.158Z" transform="translate(-274.074 -165.461)" fill="#f5f5f5"/>
      <path id="Path_20" data-name="Path 20" d="M336.318,194.669a.3.3,0,0,0,.5-.282,1.492,1.492,0,0,1-.043-.573.3.3,0,0,0,.307-.253.3.3,0,0,0-.251-.334.533.533,0,0,0-.487.164.676.676,0,0,0-.149.317l-.342-.342a.3.3,0,1,0-.418.418Z" transform="translate(-315.472 -190.306)" fill="#f5f5f5"/>
      <path id="Path_21" data-name="Path 21" d="M341.36,213.319l-1.108.794a.3.3,0,1,0,.344.48l1.108-.794a.3.3,0,1,0-.344-.48Z" transform="translate(-319.849 -208.648)" fill="#f5f5f5"/>
      <path id="Path_22" data-name="Path 22" d="M352.8,225.776a.3.3,0,0,0,.026.392.818.818,0,0,1,.06.425.3.3,0,0,0,.285.306h.011a.3.3,0,0,0,.3-.285c.021-.6-.176-.823-.262-.89A.3.3,0,0,0,352.8,225.776Z" transform="translate(-331.392 -219.994)" fill="#f5f5f5"/>
      <path id="Path_23" data-name="Path 23" d="M326.721,173.424a.3.3,0,0,0,.3-.3c0-.436-.022-.922-.059-1.429a10.766,10.766,0,0,1,.692,1.286.3.3,0,0,0,.272.179.291.291,0,0,0,.116-.024.3.3,0,0,0,.155-.388,16.253,16.253,0,0,0-1.351-2.33c-.116-1.084-.267-2.146-.385-2.908a.286.286,0,0,0,.184-.046.291.291,0,0,0,.131-.267.287.287,0,0,0,.033.085,1.075,1.075,0,0,1,.108.723.3.3,0,0,0,.229.349.313.313,0,0,0,.06.006.3.3,0,0,0,.289-.236,1.674,1.674,0,0,0-.188-1.16.3.3,0,0,0-.408-.091.292.292,0,0,0-.132.267.288.288,0,0,0-.033-.085l-.5-.775a.3.3,0,0,0-.539.211c0,.023.23,1.319.43,2.882-.227-.32-.453-.633-.672-.931-.036-.447-.071-.86-.1-1.2a.3.3,0,0,0,.18-.415l-.3-.591a.3.3,0,0,0-.558.161c.035.353.072.743.108,1.153-.187-.246-.36-.472-.508-.663a.3.3,0,0,0-.06-.488l-.591-.3a.3.3,0,0,0-.363.449c.016.02.743.932,1.613,2.108a23.753,23.753,0,0,1,.11,4.407c-.026.078-.071.17-.114.173-.178.025-.6-.374-.819-.8a.411.411,0,0,0-.4-.268c-.317.02-.441.369-.666,1a4.158,4.158,0,0,1-.587,1.25,3.354,3.354,0,0,1-.367-1.163.294.294,0,0,0,.571-.1c0-.441-.308-3.8-.48-5.634a.3.3,0,0,0,.17-.367l-.3-.886a.3.3,0,0,0-.574.121c.2,2.107.577,6.177.589,6.739l0-.015a.3.3,0,1,0-.585.084c.086.6.307,1.642.814,1.811a.493.493,0,0,0,.157.026.58.58,0,0,0,.416-.193,4.259,4.259,0,0,0,.732-1.476c.043-.122.095-.267.143-.391.271.4.744.888,1.223.85a.725.725,0,0,0,.632-.575,16.636,16.636,0,0,0-.011-3.688c.249.349.5.706.736,1.059.092.885.158,1.771.158,2.5A.3.3,0,0,0,326.721,173.424Z" transform="translate(-302.731 -165.468)" fill="#f5f5f5"/>
      <path id="Path_24" data-name="Path 24" d="M383.629,172.265c-.209-1.559-.5-3.365-.685-4.473a.291.291,0,0,0,.247-.053.3.3,0,0,0,.056-.414l-.535-.7a.3.3,0,0,0-.526.23c.005.03.532,3.063.858,5.489a2.769,2.769,0,0,1-.486,2.217,1.307,1.307,0,0,1-1.084.4.3.3,0,1,0-.037.59c.05,0,.1,0,.148,0a1.864,1.864,0,0,0,1.4-.6A3.3,3.3,0,0,0,383.629,172.265Z" transform="translate(-357.397 -165.862)" fill="#f5f5f5"/>
      <path id="Path_25" data-name="Path 25" d="M371.094,256.227a.3.3,0,0,0,.015.415.123.123,0,0,1,.035.061.138.138,0,0,1-.045.066.3.3,0,0,0,.418.418.67.67,0,0,0,.217-.5.7.7,0,0,0-.232-.481A.293.293,0,0,0,371.094,256.227Z" transform="translate(-348.112 -247.876)" fill="#f5f5f5"/>
      <path id="Path_26" data-name="Path 26" d="M162.271,327.211H160.2v-.3a.3.3,0,0,0-.591,0v.3H143.957a4.123,4.123,0,0,0,2.658.886h13v.591a.3.3,0,0,0,.3.3h2.363a.886.886,0,1,0,0-1.772Zm0,1.182H160.2v-.3h2.363l-.053-.159a.286.286,0,0,1,.053.159A.3.3,0,0,1,162.271,328.392Z" transform="translate(-140.33 -312.383)" fill="#f5f5f5"/>
    </g>
  </g>
</svg>
