<svg xmlns="http://www.w3.org/2000/svg" xmlns:xlink="http://www.w3.org/1999/xlink" width="24" height="20" viewBox="0 0 24 20">
  <defs>
    <clipPath id="clip-path">
      <path id="Combined_Shape" data-name="Combined Shape" d="M23,20a1,1,0,0,1-1-1V17a3,3,0,0,0-2.25-2.9,1,1,0,1,1,.5-1.937A5,5,0,0,1,24,17v2A1,1,0,0,1,23,20Zm-6,0a1,1,0,0,1-1-1V17a3,3,0,0,0-3-3H5a3,3,0,0,0-3,3v2a1,1,0,0,1-2,0V17a5.006,5.006,0,0,1,5-5h8a5.006,5.006,0,0,1,5,5v2A1,1,0,0,1,17,20ZM9,10a5,5,0,1,1,5-5A5.006,5.006,0,0,1,9,10ZM9,2a3,3,0,1,0,3,3A3,3,0,0,0,9,2Zm7,7.88a1,1,0,0,1-.248-1.969,3,3,0,0,0,0-5.812,1,1,0,1,1,.5-1.938,5,5,0,0,1,0,9.688A.985.985,0,0,1,16,9.88Z" transform="translate(0 2)" fill="#a9a9a9"/>
    </clipPath>
  </defs>
  <g id="users" transform="translate(0 -2)">
    <g id="Group_14" data-name="Group 14">
      <path id="Combined_Shape-2" data-name="Combined Shape" d="M23,20a1,1,0,0,1-1-1V17a3,3,0,0,0-2.25-2.9,1,1,0,1,1,.5-1.937A5,5,0,0,1,24,17v2A1,1,0,0,1,23,20Zm-6,0a1,1,0,0,1-1-1V17a3,3,0,0,0-3-3H5a3,3,0,0,0-3,3v2a1,1,0,0,1-2,0V17a5.006,5.006,0,0,1,5-5h8a5.006,5.006,0,0,1,5,5v2A1,1,0,0,1,17,20ZM9,10a5,5,0,1,1,5-5A5.006,5.006,0,0,1,9,10ZM9,2a3,3,0,1,0,3,3A3,3,0,0,0,9,2Zm7,7.88a1,1,0,0,1-.248-1.969,3,3,0,0,0,0-5.812,1,1,0,1,1,.5-1.938,5,5,0,0,1,0,9.688A.985.985,0,0,1,16,9.88Z" transform="translate(0 2)" fill="#a9a9a9"/>
      <g id="Mask_Group_14" data-name="Mask Group 14" clip-path="url(#clip-path)">
        <g id="_Color" data-name="🎨Color">
          <rect id="Rectangle" width="24" height="24" fill="#a9a9a9"/>
        </g>
      </g>
    </g>
  </g>
</svg>
